<mxfile host="app.diagrams.net" agent="Mozilla/5.0 (Windows NT 10.0; Win64; x64) AppleWebKit/537.36 (KHTML, like Gecko) Chrome/138.0.0.0 Safari/537.36" version="28.1.2">
  <diagram id="a45cf8ec-cd66-6f27-3ac3-be6e809c9e4a" name="Page-1">
    <mxGraphModel dx="3778" dy="1636" grid="1" gridSize="10" guides="1" tooltips="1" connect="1" arrows="1" fold="1" page="1" pageScale="1" pageWidth="827" pageHeight="1169" background="none" math="0" shadow="0">
      <root>
        <mxCell id="0" />
        <mxCell id="1" parent="0" />
        <mxCell id="RH_t09FBcoY_n2bVqSQD-389" value="" style="rounded=0;whiteSpace=wrap;html=1;shadow=0;strokeColor=none;fillColor=#BAC8D3;gradientColor=none;fontSize=18;fontColor=#F08705;opacity=40;fontStyle=0;strokeWidth=3;" parent="1" vertex="1">
          <mxGeometry x="-70" y="150" width="2070" height="1366.5" as="geometry" />
        </mxCell>
        <mxCell id="RH_t09FBcoY_n2bVqSQD-469" value="" style="shape=singleArrow;direction=north;whiteSpace=wrap;html=1;" parent="1" vertex="1">
          <mxGeometry x="638" y="390" width="322" height="80" as="geometry" />
        </mxCell>
        <mxCell id="168" value="能碳系统架构图" style="text;html=1;strokeColor=none;fillColor=none;align=center;verticalAlign=middle;whiteSpace=wrap;overflow=hidden;shadow=0;fontSize=36;fontColor=#AE4132;fontStyle=0" parent="1" vertex="1">
          <mxGeometry x="190" y="180" width="1380" height="45" as="geometry" />
        </mxCell>
        <mxCell id="171" style="edgeStyle=orthogonalEdgeStyle;rounded=0;jumpStyle=none;html=1;exitX=0;exitY=0.5;entryX=0;entryY=0.5;shadow=0;labelBackgroundColor=none;startArrow=none;startFill=0;endArrow=classic;endFill=1;endSize=6;jettySize=auto;orthogonalLoop=1;strokeColor=#23445D;strokeWidth=2;fillColor=#F08705;fontFamily=Helvetica;fontSize=14;fontColor=#F08705;align=left;fontStyle=0" parent="1" source="168" target="168" edge="1">
          <mxGeometry relative="1" as="geometry" />
        </mxCell>
        <mxCell id="RH_t09FBcoY_n2bVqSQD-436" style="edgeStyle=orthogonalEdgeStyle;rounded=0;orthogonalLoop=1;jettySize=auto;html=1;" parent="1" source="RH_t09FBcoY_n2bVqSQD-397" target="RH_t09FBcoY_n2bVqSQD-414" edge="1">
          <mxGeometry relative="1" as="geometry" />
        </mxCell>
        <mxCell id="RH_t09FBcoY_n2bVqSQD-397" value="&lt;font style=&quot;font-size: 15px; background-color: light-dark(#ffffff, var(--ge-dark-color, #121212));&quot;&gt;工务内部局域网&lt;/font&gt;" style="strokeWidth=2;strokeColor=#666666;dashed=0;align=center;html=1;fontSize=8;shape=mxgraph.eip.messageChannel;shadow=0;fillColor=#FFFFFF;gradientColor=none;fontColor=#F08705;fontStyle=0" parent="1" vertex="1">
          <mxGeometry x="90" y="1063.5" width="1550" height="20" as="geometry" />
        </mxCell>
        <mxCell id="RH_t09FBcoY_n2bVqSQD-399" value="变电站节点&lt;div&gt;工厂电站和各部门电表自动抄表系统&lt;/div&gt;&lt;div&gt;组态王7.56（512点）&lt;/div&gt;" style="verticalLabelPosition=bottom;sketch=0;aspect=fixed;html=1;verticalAlign=top;strokeColor=none;align=center;outlineConnect=0;shape=mxgraph.citrix.pbx_server;" parent="1" vertex="1">
          <mxGeometry x="138" y="1137.5" width="65" height="85" as="geometry" />
        </mxCell>
        <mxCell id="RH_t09FBcoY_n2bVqSQD-400" value="污水站节点&lt;div&gt;污水工控机组态王&lt;/div&gt;&lt;div&gt;SCADA3.71SP1（500点）&lt;/div&gt;" style="verticalLabelPosition=bottom;sketch=0;aspect=fixed;html=1;verticalAlign=top;strokeColor=none;align=center;outlineConnect=0;shape=mxgraph.citrix.pbx_server;" parent="1" vertex="1">
          <mxGeometry x="308" y="1137.5" width="65" height="85" as="geometry" />
        </mxCell>
        <mxCell id="RH_t09FBcoY_n2bVqSQD-402" value="锅炉房节点&lt;div&gt;冬季供暖系统工控机&lt;/div&gt;&lt;div&gt;组态王7.53（512点）&lt;/div&gt;" style="verticalLabelPosition=bottom;sketch=0;aspect=fixed;html=1;verticalAlign=top;strokeColor=none;align=center;outlineConnect=0;shape=mxgraph.citrix.pbx_server;" parent="1" vertex="1">
          <mxGeometry x="488" y="1137.5" width="65" height="85" as="geometry" />
        </mxCell>
        <mxCell id="RH_t09FBcoY_n2bVqSQD-403" value="锅炉房采暖&lt;div&gt;系统PLC&lt;/div&gt;&lt;div&gt;工控柜&lt;/div&gt;" style="verticalLabelPosition=bottom;sketch=0;aspect=fixed;html=1;verticalAlign=top;strokeColor=none;align=center;outlineConnect=0;shape=mxgraph.citrix.chassis;" parent="1" vertex="1">
          <mxGeometry x="830" y="1127.5" width="81.34" height="105" as="geometry" />
        </mxCell>
        <mxCell id="RH_t09FBcoY_n2bVqSQD-404" value="电表&lt;div&gt;TCP通讯&lt;/div&gt;" style="verticalLabelPosition=bottom;sketch=0;aspect=fixed;html=1;verticalAlign=top;strokeColor=none;align=center;outlineConnect=0;shape=mxgraph.citrix.hq_enterprise;" parent="1" vertex="1">
          <mxGeometry x="654" y="1135" width="92" height="88" as="geometry" />
        </mxCell>
        <mxCell id="RH_t09FBcoY_n2bVqSQD-405" value="污水站PLC&lt;div&gt;&lt;span style=&quot;background-color: transparent; color: light-dark(rgb(0, 0, 0), rgb(255, 255, 255));&quot;&gt;工控柜&lt;/span&gt;&lt;/div&gt;" style="verticalLabelPosition=bottom;sketch=0;aspect=fixed;html=1;verticalAlign=top;strokeColor=none;align=center;outlineConnect=0;shape=mxgraph.citrix.chassis;" parent="1" vertex="1">
          <mxGeometry x="1009" y="1127.5" width="81.34" height="105" as="geometry" />
        </mxCell>
        <mxCell id="RH_t09FBcoY_n2bVqSQD-406" value="&lt;span style=&quot;background-color: transparent; color: light-dark(rgb(0, 0, 0), rgb(255, 255, 255));&quot;&gt;污水在线监测&lt;/span&gt;&lt;div&gt;&lt;span style=&quot;background-color: transparent; color: light-dark(rgb(0, 0, 0), rgb(255, 255, 255));&quot;&gt;TCP通讯&lt;/span&gt;&lt;/div&gt;" style="verticalLabelPosition=bottom;sketch=0;aspect=fixed;html=1;verticalAlign=top;strokeColor=none;align=center;outlineConnect=0;shape=mxgraph.citrix.hq_enterprise;" parent="1" vertex="1">
          <mxGeometry x="1174" y="1136" width="92" height="88" as="geometry" />
        </mxCell>
        <mxCell id="RH_t09FBcoY_n2bVqSQD-407" value="&lt;span style=&quot;background-color: transparent; color: light-dark(rgb(0, 0, 0), rgb(255, 255, 255));&quot;&gt;天然气站&lt;/span&gt;&lt;div&gt;气体流量计&lt;/div&gt;&lt;div&gt;485转TCP通讯&lt;br&gt;&lt;div&gt;&lt;span style=&quot;background-color: transparent; color: light-dark(rgb(0, 0, 0), rgb(255, 255, 255));&quot;&gt;TCP通讯&lt;/span&gt;&lt;/div&gt;&lt;/div&gt;" style="verticalLabelPosition=bottom;sketch=0;aspect=fixed;html=1;verticalAlign=top;strokeColor=none;align=center;outlineConnect=0;shape=mxgraph.citrix.hq_enterprise;" parent="1" vertex="1">
          <mxGeometry x="1354" y="1136" width="92" height="88" as="geometry" />
        </mxCell>
        <mxCell id="RH_t09FBcoY_n2bVqSQD-408" value="生成与管理&lt;div&gt;在线设备通讯&lt;/div&gt;" style="verticalLabelPosition=bottom;sketch=0;aspect=fixed;html=1;verticalAlign=top;strokeColor=none;align=center;outlineConnect=0;shape=mxgraph.citrix.edgesight_server;" parent="1" vertex="1">
          <mxGeometry x="1532.5" y="1135" width="76.5" height="90" as="geometry" />
        </mxCell>
        <mxCell id="RH_t09FBcoY_n2bVqSQD-427" style="edgeStyle=orthogonalEdgeStyle;rounded=0;orthogonalLoop=1;jettySize=auto;html=1;" parent="1" source="RH_t09FBcoY_n2bVqSQD-410" target="RH_t09FBcoY_n2bVqSQD-399" edge="1">
          <mxGeometry relative="1" as="geometry" />
        </mxCell>
        <mxCell id="RH_t09FBcoY_n2bVqSQD-410" value="电表&lt;div&gt;485通讯&lt;/div&gt;" style="verticalLabelPosition=bottom;sketch=0;aspect=fixed;html=1;verticalAlign=top;strokeColor=none;align=center;outlineConnect=0;shape=mxgraph.citrix.tablet_1;" parent="1" vertex="1">
          <mxGeometry x="140" y="1336.5" width="61" height="79" as="geometry" />
        </mxCell>
        <mxCell id="RH_t09FBcoY_n2bVqSQD-428" style="edgeStyle=orthogonalEdgeStyle;rounded=0;orthogonalLoop=1;jettySize=auto;html=1;" parent="1" source="RH_t09FBcoY_n2bVqSQD-411" target="RH_t09FBcoY_n2bVqSQD-402" edge="1">
          <mxGeometry relative="1" as="geometry" />
        </mxCell>
        <mxCell id="RH_t09FBcoY_n2bVqSQD-411" value="水表&lt;div&gt;485通讯&lt;/div&gt;" style="verticalLabelPosition=bottom;sketch=0;aspect=fixed;html=1;verticalAlign=top;strokeColor=none;align=center;outlineConnect=0;shape=mxgraph.citrix.tablet_1;" parent="1" vertex="1">
          <mxGeometry x="490" y="1336.5" width="61" height="79" as="geometry" />
        </mxCell>
        <mxCell id="RH_t09FBcoY_n2bVqSQD-413" style="edgeStyle=orthogonalEdgeStyle;rounded=0;orthogonalLoop=1;jettySize=auto;html=1;endArrow=none;endFill=0;" parent="1" source="RH_t09FBcoY_n2bVqSQD-414" target="RH_t09FBcoY_n2bVqSQD-424" edge="1">
          <mxGeometry relative="1" as="geometry">
            <mxPoint x="865" y="836.5" as="targetPoint" />
          </mxGeometry>
        </mxCell>
        <mxCell id="RH_t09FBcoY_n2bVqSQD-480" value="Mqtt协议" style="edgeLabel;html=1;align=center;verticalAlign=middle;resizable=0;points=[];" parent="RH_t09FBcoY_n2bVqSQD-413" vertex="1" connectable="0">
          <mxGeometry x="-0.325" y="2" relative="1" as="geometry">
            <mxPoint y="1" as="offset" />
          </mxGeometry>
        </mxCell>
        <mxCell id="RH_t09FBcoY_n2bVqSQD-414" value="&lt;div&gt;巨控网关&lt;/div&gt;NET432-CJ（2000个点）" style="verticalLabelPosition=bottom;sketch=0;aspect=fixed;html=1;verticalAlign=top;strokeColor=none;align=center;outlineConnect=0;shape=mxgraph.citrix.remote_office;" parent="1" vertex="1">
          <mxGeometry x="819" y="954.5" width="92" height="41.5" as="geometry" />
        </mxCell>
        <mxCell id="RH_t09FBcoY_n2bVqSQD-415" value="" style="endArrow=none;dashed=1;html=1;rounded=0;strokeWidth=2;" parent="1" edge="1">
          <mxGeometry width="50" height="50" relative="1" as="geometry">
            <mxPoint x="-20" y="1326.5" as="sourcePoint" />
            <mxPoint x="1810" y="1323.5" as="targetPoint" />
          </mxGeometry>
        </mxCell>
        <mxCell id="RH_t09FBcoY_n2bVqSQD-416" value="" style="endArrow=none;dashed=1;html=1;rounded=0;strokeWidth=2;" parent="1" edge="1">
          <mxGeometry width="50" height="50" relative="1" as="geometry">
            <mxPoint x="-17" y="1108.5" as="sourcePoint" />
            <mxPoint x="1813" y="1105.5" as="targetPoint" />
          </mxGeometry>
        </mxCell>
        <mxCell id="RH_t09FBcoY_n2bVqSQD-417" value="&lt;font style=&quot;font-size: 28px;&quot;&gt;仪表层&lt;/font&gt;" style="text;html=1;align=center;verticalAlign=middle;resizable=0;points=[];autosize=1;strokeColor=none;fillColor=none;" parent="1" vertex="1">
          <mxGeometry x="-40" y="1351" width="110" height="50" as="geometry" />
        </mxCell>
        <mxCell id="RH_t09FBcoY_n2bVqSQD-418" value="&lt;font style=&quot;font-size: 28px;&quot;&gt;传输层&lt;/font&gt;" style="text;html=1;align=center;verticalAlign=middle;resizable=0;points=[];autosize=1;strokeColor=none;fillColor=none;" parent="1" vertex="1">
          <mxGeometry x="-50" y="1175" width="110" height="50" as="geometry" />
        </mxCell>
        <mxCell id="RH_t09FBcoY_n2bVqSQD-419" value="" style="endArrow=none;dashed=1;html=1;rounded=0;strokeWidth=2;" parent="1" edge="1">
          <mxGeometry width="50" height="50" relative="1" as="geometry">
            <mxPoint x="-20" y="939.5" as="sourcePoint" />
            <mxPoint x="1810" y="936.5" as="targetPoint" />
          </mxGeometry>
        </mxCell>
        <mxCell id="RH_t09FBcoY_n2bVqSQD-421" value="&lt;font style=&quot;font-size: 28px;&quot;&gt;数据采集层&lt;/font&gt;" style="text;html=1;align=center;verticalAlign=middle;resizable=0;points=[];autosize=1;strokeColor=none;fillColor=none;" parent="1" vertex="1">
          <mxGeometry x="-65" y="976.5" width="160" height="50" as="geometry" />
        </mxCell>
        <mxCell id="RH_t09FBcoY_n2bVqSQD-435" style="edgeStyle=orthogonalEdgeStyle;rounded=0;orthogonalLoop=1;jettySize=auto;html=1;" parent="1" source="RH_t09FBcoY_n2bVqSQD-424" target="RH_t09FBcoY_n2bVqSQD-431" edge="1">
          <mxGeometry relative="1" as="geometry" />
        </mxCell>
        <mxCell id="RH_t09FBcoY_n2bVqSQD-424" value="&lt;font style=&quot;font-size: 13px;&quot;&gt;&lt;b&gt;能碳系统数据采集端&lt;/b&gt;&lt;/font&gt;" style="verticalLabelPosition=bottom;sketch=0;aspect=fixed;html=1;verticalAlign=top;strokeColor=none;align=center;outlineConnect=0;shape=mxgraph.citrix.netscaler_sdx;" parent="1" vertex="1">
          <mxGeometry x="815" y="808.5" width="100" height="47.5" as="geometry" />
        </mxCell>
        <mxCell id="RH_t09FBcoY_n2bVqSQD-425" value="&lt;font style=&quot;font-size: 28px;&quot;&gt;平台层&lt;/font&gt;" style="text;html=1;align=center;verticalAlign=middle;resizable=0;points=[];autosize=1;strokeColor=none;fillColor=none;" parent="1" vertex="1">
          <mxGeometry x="-40" y="758.5" width="110" height="50" as="geometry" />
        </mxCell>
        <mxCell id="RH_t09FBcoY_n2bVqSQD-429" style="edgeStyle=orthogonalEdgeStyle;rounded=0;orthogonalLoop=1;jettySize=auto;html=1;entryX=0;entryY=1;entryDx=80;entryDy=0;entryPerimeter=0;" parent="1" source="RH_t09FBcoY_n2bVqSQD-399" target="RH_t09FBcoY_n2bVqSQD-397" edge="1">
          <mxGeometry relative="1" as="geometry" />
        </mxCell>
        <mxCell id="RH_t09FBcoY_n2bVqSQD-454" style="edgeStyle=orthogonalEdgeStyle;rounded=0;orthogonalLoop=1;jettySize=auto;html=1;" parent="1" source="RH_t09FBcoY_n2bVqSQD-431" target="RH_t09FBcoY_n2bVqSQD-448" edge="1">
          <mxGeometry relative="1" as="geometry" />
        </mxCell>
        <mxCell id="RH_t09FBcoY_n2bVqSQD-455" style="edgeStyle=orthogonalEdgeStyle;rounded=0;orthogonalLoop=1;jettySize=auto;html=1;" parent="1" source="RH_t09FBcoY_n2bVqSQD-431" target="RH_t09FBcoY_n2bVqSQD-449" edge="1">
          <mxGeometry relative="1" as="geometry" />
        </mxCell>
        <mxCell id="RH_t09FBcoY_n2bVqSQD-456" style="edgeStyle=orthogonalEdgeStyle;rounded=0;orthogonalLoop=1;jettySize=auto;html=1;" parent="1" source="RH_t09FBcoY_n2bVqSQD-431" target="RH_t09FBcoY_n2bVqSQD-450" edge="1">
          <mxGeometry relative="1" as="geometry" />
        </mxCell>
        <mxCell id="RH_t09FBcoY_n2bVqSQD-458" style="edgeStyle=orthogonalEdgeStyle;rounded=0;orthogonalLoop=1;jettySize=auto;html=1;" parent="1" source="RH_t09FBcoY_n2bVqSQD-431" target="RH_t09FBcoY_n2bVqSQD-451" edge="1">
          <mxGeometry relative="1" as="geometry" />
        </mxCell>
        <mxCell id="RH_t09FBcoY_n2bVqSQD-459" style="edgeStyle=orthogonalEdgeStyle;rounded=0;orthogonalLoop=1;jettySize=auto;html=1;" parent="1" source="RH_t09FBcoY_n2bVqSQD-431" target="RH_t09FBcoY_n2bVqSQD-452" edge="1">
          <mxGeometry relative="1" as="geometry" />
        </mxCell>
        <mxCell id="RH_t09FBcoY_n2bVqSQD-431" value="能碳系统&lt;div&gt;Mysql数据库&lt;/div&gt;&lt;div&gt;双网卡&lt;/div&gt;" style="verticalLabelPosition=bottom;sketch=0;aspect=fixed;html=1;verticalAlign=top;strokeColor=none;align=center;outlineConnect=0;shape=mxgraph.citrix.database_server;" parent="1" vertex="1">
          <mxGeometry x="825" y="652" width="80" height="90" as="geometry" />
        </mxCell>
        <mxCell id="RH_t09FBcoY_n2bVqSQD-432" style="edgeStyle=orthogonalEdgeStyle;rounded=0;orthogonalLoop=1;jettySize=auto;html=1;entryX=0;entryY=1;entryDx=250;entryDy=0;entryPerimeter=0;" parent="1" source="RH_t09FBcoY_n2bVqSQD-400" target="RH_t09FBcoY_n2bVqSQD-397" edge="1">
          <mxGeometry relative="1" as="geometry" />
        </mxCell>
        <mxCell id="RH_t09FBcoY_n2bVqSQD-433" style="edgeStyle=orthogonalEdgeStyle;rounded=0;orthogonalLoop=1;jettySize=auto;html=1;entryX=0;entryY=1;entryDx=430;entryDy=0;entryPerimeter=0;" parent="1" source="RH_t09FBcoY_n2bVqSQD-402" target="RH_t09FBcoY_n2bVqSQD-397" edge="1">
          <mxGeometry relative="1" as="geometry" />
        </mxCell>
        <mxCell id="RH_t09FBcoY_n2bVqSQD-434" style="edgeStyle=orthogonalEdgeStyle;rounded=0;orthogonalLoop=1;jettySize=auto;html=1;entryX=0;entryY=1;entryDx=610;entryDy=0;entryPerimeter=0;" parent="1" source="RH_t09FBcoY_n2bVqSQD-404" target="RH_t09FBcoY_n2bVqSQD-397" edge="1">
          <mxGeometry relative="1" as="geometry" />
        </mxCell>
        <mxCell id="RH_t09FBcoY_n2bVqSQD-437" style="edgeStyle=orthogonalEdgeStyle;rounded=0;orthogonalLoop=1;jettySize=auto;html=1;entryX=0;entryY=1;entryDx=780;entryDy=0;entryPerimeter=0;" parent="1" source="RH_t09FBcoY_n2bVqSQD-403" target="RH_t09FBcoY_n2bVqSQD-397" edge="1">
          <mxGeometry relative="1" as="geometry" />
        </mxCell>
        <mxCell id="RH_t09FBcoY_n2bVqSQD-438" style="edgeStyle=orthogonalEdgeStyle;rounded=0;orthogonalLoop=1;jettySize=auto;html=1;entryX=0;entryY=1;entryDx=960;entryDy=0;entryPerimeter=0;" parent="1" source="RH_t09FBcoY_n2bVqSQD-405" target="RH_t09FBcoY_n2bVqSQD-397" edge="1">
          <mxGeometry relative="1" as="geometry" />
        </mxCell>
        <mxCell id="RH_t09FBcoY_n2bVqSQD-439" style="edgeStyle=orthogonalEdgeStyle;rounded=0;orthogonalLoop=1;jettySize=auto;html=1;entryX=0;entryY=1;entryDx=1130;entryDy=0;entryPerimeter=0;" parent="1" source="RH_t09FBcoY_n2bVqSQD-406" target="RH_t09FBcoY_n2bVqSQD-397" edge="1">
          <mxGeometry relative="1" as="geometry" />
        </mxCell>
        <mxCell id="RH_t09FBcoY_n2bVqSQD-440" style="edgeStyle=orthogonalEdgeStyle;rounded=0;orthogonalLoop=1;jettySize=auto;html=1;entryX=0;entryY=1;entryDx=1310;entryDy=0;entryPerimeter=0;" parent="1" source="RH_t09FBcoY_n2bVqSQD-407" target="RH_t09FBcoY_n2bVqSQD-397" edge="1">
          <mxGeometry relative="1" as="geometry" />
        </mxCell>
        <mxCell id="RH_t09FBcoY_n2bVqSQD-441" style="edgeStyle=orthogonalEdgeStyle;rounded=0;orthogonalLoop=1;jettySize=auto;html=1;entryX=0;entryY=1;entryDx=1480;entryDy=0;entryPerimeter=0;" parent="1" source="RH_t09FBcoY_n2bVqSQD-408" target="RH_t09FBcoY_n2bVqSQD-397" edge="1">
          <mxGeometry relative="1" as="geometry" />
        </mxCell>
        <mxCell id="RH_t09FBcoY_n2bVqSQD-445" value="&lt;font style=&quot;font-size: 28px;&quot;&gt;用户层&lt;/font&gt;" style="text;html=1;align=center;verticalAlign=middle;resizable=0;points=[];autosize=1;strokeColor=none;fillColor=none;" parent="1" vertex="1">
          <mxGeometry x="-40" y="340" width="110" height="50" as="geometry" />
        </mxCell>
        <mxCell id="RH_t09FBcoY_n2bVqSQD-446" value="大屏" style="verticalLabelPosition=bottom;sketch=0;aspect=fixed;html=1;verticalAlign=top;strokeColor=none;align=center;outlineConnect=0;shape=mxgraph.citrix.tablet_2;" parent="1" vertex="1">
          <mxGeometry x="1286" y="270" width="82" height="86" as="geometry" />
        </mxCell>
        <mxCell id="RH_t09FBcoY_n2bVqSQD-447" value="PC端" style="verticalLabelPosition=bottom;sketch=0;aspect=fixed;html=1;verticalAlign=top;strokeColor=none;align=center;outlineConnect=0;shape=mxgraph.citrix.laptop_1;" parent="1" vertex="1">
          <mxGeometry x="265" y="270" width="91" height="77" as="geometry" />
        </mxCell>
        <mxCell id="RH_t09FBcoY_n2bVqSQD-448" value="用户权限服务" style="verticalLabelPosition=bottom;sketch=0;aspect=fixed;html=1;verticalAlign=top;strokeColor=none;align=center;outlineConnect=0;shape=mxgraph.citrix.xenapp_server;" parent="1" vertex="1">
          <mxGeometry x="280" y="490" width="76" height="89" as="geometry" />
        </mxCell>
        <mxCell id="RH_t09FBcoY_n2bVqSQD-449" value="组织碳核算服务" style="verticalLabelPosition=bottom;sketch=0;aspect=fixed;html=1;verticalAlign=top;strokeColor=none;align=center;outlineConnect=0;shape=mxgraph.citrix.xenapp_server;" parent="1" vertex="1">
          <mxGeometry x="522" y="480" width="76" height="89" as="geometry" />
        </mxCell>
        <mxCell id="RH_t09FBcoY_n2bVqSQD-450" value="产品碳足迹服务" style="verticalLabelPosition=bottom;sketch=0;aspect=fixed;html=1;verticalAlign=top;strokeColor=none;align=center;outlineConnect=0;shape=mxgraph.citrix.xenapp_server;" parent="1" vertex="1">
          <mxGeometry x="753" y="480" width="76" height="89" as="geometry" />
        </mxCell>
        <mxCell id="RH_t09FBcoY_n2bVqSQD-451" value="能碳指标&lt;div&gt;大数据分析服务&lt;/div&gt;" style="verticalLabelPosition=bottom;sketch=0;aspect=fixed;html=1;verticalAlign=top;strokeColor=none;align=center;outlineConnect=0;shape=mxgraph.citrix.xenapp_server;" parent="1" vertex="1">
          <mxGeometry x="941" y="480" width="76" height="89" as="geometry" />
        </mxCell>
        <mxCell id="RH_t09FBcoY_n2bVqSQD-452" value="设备管理服务" style="verticalLabelPosition=bottom;sketch=0;aspect=fixed;html=1;verticalAlign=top;strokeColor=none;align=center;outlineConnect=0;shape=mxgraph.citrix.xenapp_server;" parent="1" vertex="1">
          <mxGeometry x="1153" y="480" width="76" height="89" as="geometry" />
        </mxCell>
        <mxCell id="RH_t09FBcoY_n2bVqSQD-453" value="" style="endArrow=none;dashed=1;html=1;rounded=0;strokeWidth=2;" parent="1" source="RH_t09FBcoY_n2bVqSQD-469" edge="1">
          <mxGeometry width="50" height="50" relative="1" as="geometry">
            <mxPoint x="-20" y="433" as="sourcePoint" />
            <mxPoint x="1810" y="430" as="targetPoint" />
          </mxGeometry>
        </mxCell>
        <mxCell id="RH_t09FBcoY_n2bVqSQD-470" value="" style="endArrow=none;dashed=1;html=1;rounded=0;strokeWidth=2;" parent="1" target="RH_t09FBcoY_n2bVqSQD-469" edge="1">
          <mxGeometry width="50" height="50" relative="1" as="geometry">
            <mxPoint x="-20" y="433" as="sourcePoint" />
            <mxPoint x="1810" y="430" as="targetPoint" />
          </mxGeometry>
        </mxCell>
        <mxCell id="RH_t09FBcoY_n2bVqSQD-474" value="PC端" style="verticalLabelPosition=bottom;sketch=0;aspect=fixed;html=1;verticalAlign=top;strokeColor=none;align=center;outlineConnect=0;shape=mxgraph.citrix.laptop_1;" parent="1" vertex="1">
          <mxGeometry x="805" y="274.5" width="91" height="77" as="geometry" />
        </mxCell>
        <mxCell id="RH_t09FBcoY_n2bVqSQD-476" value="" style="verticalLabelPosition=bottom;sketch=0;aspect=fixed;html=1;verticalAlign=top;strokeColor=none;align=center;outlineConnect=0;shape=mxgraph.citrix.thin_client;" parent="1" vertex="1">
          <mxGeometry x="551" y="290" width="71" height="71" as="geometry" />
        </mxCell>
        <mxCell id="RH_t09FBcoY_n2bVqSQD-477" value="" style="verticalLabelPosition=bottom;sketch=0;aspect=fixed;html=1;verticalAlign=top;strokeColor=none;align=center;outlineConnect=0;shape=mxgraph.citrix.thin_client;" parent="1" vertex="1">
          <mxGeometry x="1067" y="285" width="71" height="71" as="geometry" />
        </mxCell>
        <mxCell id="RH_t09FBcoY_n2bVqSQD-478" value="" style="swimlane;startSize=0;dashed=1;dashPattern=12 12;" parent="1" vertex="1">
          <mxGeometry x="1333" y="1120" width="340" height="171" as="geometry" />
        </mxCell>
        <mxCell id="RH_t09FBcoY_n2bVqSQD-479" value="建设中" style="ellipse;shape=cloud;whiteSpace=wrap;html=1;shadow=0;strokeColor=#23445D;fillColor=#BAC8D3;gradientColor=none;fontSize=21;fontColor=#23445D;fontStyle=1;gradientDirection=north;strokeWidth=2;" parent="1" vertex="1">
          <mxGeometry x="1609" y="1120" width="150" height="90" as="geometry" />
        </mxCell>
        <mxCell id="RH_t09FBcoY_n2bVqSQD-481" value="网卡1" style="shape=callout;whiteSpace=wrap;html=1;perimeter=calloutPerimeter;position2=1;" parent="1" vertex="1">
          <mxGeometry x="680" y="720" width="120" height="60" as="geometry" />
        </mxCell>
      </root>
    </mxGraphModel>
  </diagram>
</mxfile>
